<svg xmlns="http://www.w3.org/2000/svg" viewBox="0 0 32 32" width="32" height="32">
  <defs>
    <linearGradient id="grad1" x1="0%" y1="0%" x2="100%" y2="100%">
      <stop offset="0%" style="stop-color:#4F46E5;stop-opacity:1" />
      <stop offset="50%" style="stop-color:#7C3AED;stop-opacity:1" />
      <stop offset="100%" style="stop-color:#EC4899;stop-opacity:1" />
    </linearGradient>
    <linearGradient id="grad2" x1="0%" y1="0%" x2="100%" y2="100%">
      <stop offset="0%" style="stop-color:#10B981;stop-opacity:1" />
      <stop offset="100%" style="stop-color:#3B82F6;stop-opacity:1" />
    </linearGradient>
  </defs>
  
  <!-- Background circle -->
  <circle cx="16" cy="16" r="15" fill="url(#grad1)" stroke="#fff" stroke-width="1"/>
  
  <!-- Neural network nodes -->
  <circle cx="8" cy="12" r="2.5" fill="#fff" opacity="0.9"/>
  <circle cx="8" cy="20" r="2.5" fill="#fff" opacity="0.9"/>
  <circle cx="16" cy="8" r="2.5" fill="#fff" opacity="0.9"/>
  <circle cx="16" cy="16" r="3" fill="#fff"/>
  <circle cx="16" cy="24" r="2.5" fill="#fff" opacity="0.9"/>
  <circle cx="24" cy="12" r="2.5" fill="#fff" opacity="0.9"/>
  <circle cx="24" cy="20" r="2.5" fill="#fff" opacity="0.9"/>
  
  <!-- Neural network connections -->
  <line x1="8" y1="12" x2="16" y2="8" stroke="#fff" stroke-width="1.5" opacity="0.7"/>
  <line x1="8" y1="12" x2="16" y2="16" stroke="#fff" stroke-width="2" opacity="0.8"/>
  <line x1="8" y1="12" x2="16" y2="24" stroke="#fff" stroke-width="1.5" opacity="0.7"/>
  
  <line x1="8" y1="20" x2="16" y2="8" stroke="#fff" stroke-width="1.5" opacity="0.7"/>
  <line x1="8" y1="20" x2="16" y2="16" stroke="#fff" stroke-width="2" opacity="0.8"/>
  <line x1="8" y1="20" x2="16" y2="24" stroke="#fff" stroke-width="1.5" opacity="0.7"/>
  
  <line x1="16" y1="8" x2="24" y2="12" stroke="#fff" stroke-width="1.5" opacity="0.7"/>
  <line x1="16" y1="8" x2="24" y2="20" stroke="#fff" stroke-width="1.5" opacity="0.7"/>
  
  <line x1="16" y1="16" x2="24" y2="12" stroke="#fff" stroke-width="2" opacity="0.8"/>
  <line x1="16" y1="16" x2="24" y2="20" stroke="#fff" stroke-width="2" opacity="0.8"/>
  
  <line x1="16" y1="24" x2="24" y2="12" stroke="#fff" stroke-width="1.5" opacity="0.7"/>
  <line x1="16" y1="24" x2="24" y2="20" stroke="#fff" stroke-width="1.5" opacity="0.7"/>
  
  <!-- Central highlight -->
  <circle cx="16" cy="16" r="1.5" fill="url(#grad2)" opacity="0.8"/>
</svg>
